<?xml version="1.0" standalone="no"?>
<!DOCTYPE svg PUBLIC "-//W3C//DTD SVG 20010904//EN"
 "http://www.w3.org/TR/2001/REC-SVG-20010904/DTD/svg10.dtd">
<svg version="1.0" xmlns="http://www.w3.org/2000/svg"
 width="4000.000000pt" height="4000.000000pt" viewBox="0 0 4000.000000 4000.000000"
 preserveAspectRatio="xMidYMid meet">

<g transform="translate(0.000000,4000.000000) scale(0.100000,-0.100000)"
fill="#000000" stroke="none">
<path d="M20220 27213 c-154 -9 -434 -37 -585 -59 -191 -28 -363 -61 -325 -63
14 0 41 4 60 9 19 6 89 15 155 20 66 6 138 13 160 15 131 15 652 0 1045 -31
295 -23 814 -94 875 -119 6 -3 -20 -3 -58 -2 -58 2 -65 0 -50 -11 15 -12 11
-13 -29 -7 -60 9 -63 -7 -5 -25 23 -8 47 -14 52 -15 6 -1 17 -4 25 -8 34 -15
227 -59 455 -103 105 -20 233 -50 285 -66 52 -16 214 -58 360 -94 470 -115
716 -191 1350 -417 468 -167 870 -319 1195 -452 105 -42 262 -104 350 -137 88
-33 189 -71 225 -85 36 -14 92 -34 125 -44 33 -10 109 -34 169 -54 60 -19 117
-35 126 -35 9 0 20 -3 24 -7 9 -9 86 -11 86 -2 0 32 -270 194 -536 321 -176
83 -703 320 -964 433 -246 106 -356 158 -320 149 128 -31 376 -104 415 -123
19 -9 288 -100 310 -105 6 -2 55 -17 109 -34 95 -30 164 -55 426 -152 175 -65
333 -121 350 -125 51 -11 762 -313 979 -416 46 -22 86 -38 89 -35 9 10 -517
262 -1040 499 -404 184 -1067 445 -1663 655 -229 80 -683 221 -935 290 -351
97 -554 147 -800 198 -36 7 -96 20 -135 29 -124 28 -695 123 -865 144 -409 51
-755 72 -1150 69 -157 -1 -310 -3 -340 -5z m1327 -259 c-3 -3 -12 -4 -19 -1
-8 3 -5 6 6 6 11 1 17 -2 13 -5z"/>
<path d="M19248 27083 c7 -3 16 -2 19 1 4 3 -2 6 -13 5 -11 0 -14 -3 -6 -6z"/>
<path d="M20300 26524 c-14 -1 -97 -8 -185 -14 -184 -13 -494 -59 -646 -96
-713 -172 -1065 -488 -1154 -1039 -36 -222 -1 -533 91 -796 50 -143 158 -390
217 -494 51 -92 188 -298 229 -347 l23 -27 55 19 c158 54 401 74 815 67 1395
-24 3231 -477 4925 -1214 816 -356 1594 -769 2365 -1256 1168 -739 2185 -1507
3125 -2362 196 -178 788 -767 953 -948 251 -275 552 -631 696 -823 42 -57 78
-101 80 -98 2 2 -1 10 -7 17 -7 8 -9 17 -5 20 3 4 1 7 -5 7 -7 0 -12 5 -12 12
0 6 -6 19 -14 27 -8 9 -16 23 -18 31 -2 8 -22 43 -45 76 -24 34 -43 64 -43 67
0 33 -278 421 -595 830 -17 22 -37 50 -46 63 -9 13 -27 36 -40 52 -13 15 -62
72 -109 126 -81 95 -161 186 -220 251 -15 17 -48 57 -75 90 -27 33 -60 71 -74
85 -25 24 -64 73 -47 58 75 -64 126 -110 215 -194 101 -97 290 -263 540 -474
166 -140 385 -261 567 -314 214 -62 444 -57 584 14 106 54 171 120 225 229 17
33 34 61 38 61 5 0 6 3 3 8 -2 4 2 34 10 67 50 207 55 289 30 476 -10 71 -32
147 -67 234 -4 11 -20 52 -34 90 -88 235 -219 513 -303 645 -9 14 -29 50 -44
80 -29 58 -40 78 -100 175 -20 33 -38 67 -40 75 -3 16 -2 14 -54 85 -21 27
-51 75 -68 106 -25 47 -102 163 -223 339 -69 99 -210 290 -275 372 -43 54 -78
100 -78 103 0 5 -20 30 -56 68 -11 12 -34 40 -50 62 -34 47 -63 81 -125 150
-25 27 -49 58 -52 68 -4 11 -12 15 -18 11 -7 -4 -9 -3 -6 3 4 6 -13 28 -36 49
-55 50 -69 72 -31 48 16 -10 31 -21 34 -24 3 -3 49 -38 102 -79 206 -156 470
-432 695 -727 12 -16 60 -78 107 -139 431 -556 763 -1108 924 -1535 114 -303
148 -434 178 -685 19 -164 14 -475 -10 -615 -35 -199 -36 -203 -105 -455 -23
-84 -22 -165 1 -188 9 -10 32 -17 53 -17 42 0 126 19 140 31 5 5 15 9 23 9 8
0 37 14 64 30 27 17 54 31 61 33 6 1 18 8 26 15 8 8 39 32 69 55 122 92 218
211 297 365 153 301 160 696 19 1134 -74 230 -228 562 -375 805 l-71 117 55
-49 c119 -109 166 -139 205 -128 33 8 53 50 60 121 l7 65 57 -104 c108 -198
268 -573 336 -790 89 -280 124 -461 157 -818 14 -151 27 -277 30 -279 2 -2 22
7 44 20 23 14 38 28 34 31 -3 4 -1 7 6 7 37 0 148 162 165 242 3 13 15 55 26
93 12 39 27 133 34 210 11 126 11 155 -6 290 -57 455 -258 926 -632 1485 -446
666 -1015 1281 -1830 1980 -434 372 -559 465 -706 528 -58 25 -67 24 -73 -5
-4 -23 3 -35 42 -73 173 -167 270 -264 452 -452 113 -117 224 -234 246 -259
22 -26 116 -125 210 -220 166 -169 323 -341 323 -352 0 -3 24 -46 54 -95 60
-98 86 -172 86 -243 0 -66 -17 -99 -64 -119 -47 -22 -83 -14 -132 29 -19 17
-44 31 -56 31 -14 0 -92 70 -237 213 -264 260 -300 294 -521 483 -281 240
-610 492 -820 628 -58 37 -145 96 -195 131 -224 159 -352 240 -481 306 -164
84 -178 93 -269 177 -78 72 -235 192 -428 327 -71 50 -168 119 -215 154 -48
35 -148 104 -222 153 -118 79 -172 117 -132 94 24 -14 12 2 -15 20 -20 13 -25
13 -18 3 6 -8 3 -7 -6 2 -22 24 -439 284 -439 274 0 -2 -26 11 -57 30 -32 19
-61 35 -64 35 -4 0 -65 34 -135 76 -141 84 -127 76 -469 264 -132 73 -294 162
-360 199 -66 37 -160 89 -210 116 -49 26 -94 51 -100 55 -5 4 -55 31 -110 60
-212 113 -342 192 -370 226 -31 38 -1155 572 -1155 549 0 -1 30 -22 68 -46 37
-24 78 -54 92 -67 14 -13 61 -51 105 -83 146 -107 167 -123 264 -203 53 -44
121 -104 151 -134 55 -54 219 -192 267 -224 14 -9 29 -21 32 -26 6 -9 105 -80
299 -217 55 -38 98 -72 96 -75 -1 -3 61 -43 139 -89 290 -171 612 -364 617
-371 3 -3 12 -9 20 -13 8 -4 47 -27 85 -52 39 -25 79 -49 90 -55 11 -5 45 -25
75 -45 30 -19 71 -43 90 -52 19 -10 41 -24 48 -30 7 -7 18 -13 23 -13 5 0 21
-10 34 -23 l25 -23 -68 4 c-37 2 -68 8 -70 13 -2 5 -17 9 -33 9 -24 0 -29 -4
-29 -25 0 -17 6 -25 18 -25 13 0 14 -2 3 -9 -11 -7 -11 -15 0 -45 7 -20 18
-36 25 -36 6 0 14 -8 18 -17 8 -27 46 -80 84 -119 6 -7 12 -16 12 -20 0 -6 86
-113 101 -124 3 -3 35 -41 70 -85 35 -44 75 -93 90 -110 14 -16 48 -55 74 -85
27 -30 52 -56 57 -58 4 -2 8 -8 8 -13 0 -5 7 -17 15 -26 23 -29 127 -162 192
-248 62 -81 233 -390 233 -419 0 -9 6 -19 13 -22 7 -2 14 -23 16 -46 1 -23 6
-47 10 -53 9 -12 20 -47 27 -90 3 -16 12 -65 20 -109 18 -98 18 -166 0 -233
-8 -28 -11 -54 -8 -57 3 -3 0 -6 -6 -6 -7 0 -12 -7 -12 -16 0 -8 -4 -13 -9 -9
-6 3 -15 -3 -20 -13 -22 -41 -217 -102 -324 -102 -16 0 -26 -4 -22 -10 9 -15
2 -13 -98 26 -256 99 -785 284 -813 284 -28 0 0 -30 96 -104 54 -42 101 -76
104 -76 4 0 20 -12 36 -27 22 -19 27 -29 18 -34 -7 -4 -18 -3 -25 2 -6 6 -19
9 -29 7 -10 -2 9 -21 57 -55 101 -72 113 -82 107 -88 -3 -3 -17 -1 -32 5 -15
5 -45 7 -67 4 -32 -5 -39 -4 -39 10 0 11 -9 16 -27 16 -22 0 -25 -2 -13 -10
13 -8 12 -10 -3 -10 -11 0 -30 9 -44 20 -14 11 -31 20 -37 20 -6 0 -4 -5 4
-10 8 -5 11 -10 5 -10 -5 0 -23 9 -40 20 -16 11 -40 20 -52 20 -12 0 -24 4
-28 9 -3 6 -13 9 -23 9 -19 -2 -115 39 -327 137 -94 44 -121 57 -320 158 -158
80 -565 277 -571 277 -2 0 -46 21 -96 46 -76 37 -285 134 -453 209 -16 7 -64
29 -105 48 -273 127 -670 293 -1105 462 -359 140 -429 165 -890 327 -93 32
-289 95 -435 139 -340 103 -482 148 -497 161 -9 8 -13 7 -13 -3 0 -11 -2 -11
-10 1 -5 8 -10 11 -10 7 0 -5 -7 -1 -16 7 -8 9 -24 16 -35 16 -13 0 -19 7 -18
23 0 12 3 16 6 10 2 -7 20 -13 39 -13 21 0 33 4 29 10 -9 14 22 12 90 -6 42
-11 79 -13 123 -9 51 5 63 4 68 -9 4 -11 11 -13 23 -7 22 12 103 2 94 -12 -3
-6 6 -8 25 -5 17 2 29 1 26 -4 -3 -4 6 -8 20 -8 14 0 26 4 26 10 0 5 10 9 23
9 12 -1 37 4 55 9 17 6 32 7 32 2 0 -5 -12 -10 -27 -12 l-28 -4 29 -9 c19 -5
36 -4 47 4 10 6 25 11 33 11 25 0 104 54 110 75 8 29 -10 41 -23 16 -14 -25
-31 -28 -31 -5 0 8 4 13 9 10 9 -6 21 49 21 102 0 17 -8 40 -18 50 -9 9 -23
37 -30 62 -7 25 -18 59 -23 75 -6 17 -11 37 -12 45 -3 23 -79 90 -110 97 -22
4 -27 10 -24 24 3 11 1 19 -4 19 -4 0 -6 7 -3 15 4 9 0 15 -10 15 -9 0 -16 5
-16 10 0 6 -12 16 -27 22 -16 7 -41 21 -56 31 -15 10 -35 16 -43 13 -8 -3 -12
-2 -9 4 3 6 2 10 -2 10 -5 0 -21 11 -36 26 -15 14 -32 22 -39 18 -7 -4 -8 -3
-4 4 4 8 0 12 -12 12 -10 0 -27 8 -38 18 -28 24 -155 85 -180 85 -7 0 -11 4
-9 8 3 4 -7 12 -23 18 -46 18 -104 56 -114 75 -7 12 -17 16 -34 12 -17 -5 -22
-3 -18 8 3 7 -3 16 -13 20 -33 12 -63 33 -56 39 3 4 -1 7 -11 7 -9 0 -19 7
-22 15 -3 8 -14 17 -24 20 -27 8 -72 54 -65 65 3 6 -4 10 -17 10 -20 0 -23 4
-22 36 2 26 -1 33 -9 25 -13 -13 -41 -15 -33 -2 9 14 -4 41 -20 41 -8 0 -14 5
-14 10 0 6 5 10 11 10 6 0 9 14 7 33 -2 26 -7 31 -25 29 -25 -4 -41 16 -19 24
23 9 3 40 -34 52 -36 13 -40 32 -5 32 17 0 23 4 19 14 -3 8 -18 13 -37 12 -26
-1 -33 3 -35 22 -2 16 2 22 15 23 10 0 13 3 6 5 -7 3 -9 12 -6 20 3 8 -1 14
-8 14 -10 0 -10 3 -3 8 6 4 14 19 17 34 4 15 14 33 22 42 8 8 15 19 15 25 0 6
12 11 28 12 l27 1 -25 7 c-23 7 -22 8 15 15 22 4 69 20 105 36 36 15 112 42
170 60 132 39 350 109 370 117 8 4 20 7 25 8 6 0 15 3 20 6 21 13 293 100 355
114 119 27 224 53 355 87 127 33 134 34 307 32 98 -2 182 -5 188 -9 5 -3 7 0
4 9 -3 8 -38 26 -77 40 -154 53 -589 207 -722 256 -140 52 -301 110 -490 176
-55 20 -170 62 -255 94 -85 32 -195 72 -245 90 -49 17 -106 37 -125 45 -82 31
-199 73 -250 90 -30 10 -59 21 -65 25 -5 4 -26 11 -45 15 -19 4 -62 17 -95 29
-33 13 -86 31 -118 41 -32 10 -61 24 -65 30 -11 17 -368 56 -677 73 -139 8
-607 13 -655 6z m2937 -2575 c1 -15 0 -17 -3 -6 -3 9 -14 17 -25 17 -10 0 -19
7 -19 15 0 26 45 1 47 -26z m4988 -2994 c354 -177 662 -298 907 -355 51 -12
126 -33 167 -47 92 -30 316 -137 354 -169 16 -13 34 -24 40 -24 7 0 23 -10 37
-23 14 -12 42 -33 63 -46 20 -12 37 -28 37 -33 0 -6 3 -9 6 -5 6 6 17 -2 59
-41 14 -13 25 -19 25 -15 0 4 6 1 13 -8 17 -21 161 -100 206 -111 114 -30 148
-31 241 -9 88 21 93 21 180 5 50 -9 90 -20 90 -24 0 -9 41 -21 90 -26 19 -2
36 -7 38 -12 1 -5 35 -7 74 -6 44 2 67 -1 58 -6 -11 -7 -7 -10 14 -16 18 -4
31 -2 35 5 6 9 20 9 55 1 27 -6 88 -13 137 -15 49 -2 98 -9 109 -15 19 -10
100 -3 100 9 0 4 10 8 22 8 13 1 24 7 26 13 2 5 9 10 16 10 10 0 11 -12 5 -47
-16 -96 -29 -143 -40 -143 -5 0 -6 -7 -3 -15 4 -8 -1 -17 -10 -21 -9 -3 -16
-14 -16 -23 0 -9 -14 -31 -30 -50 -17 -18 -30 -37 -30 -41 0 -15 -52 -58 -78
-65 -15 -4 -30 -12 -34 -18 -4 -7 -13 -12 -20 -12 -33 -2 -88 -18 -88 -26 0
-5 -13 -9 -30 -9 -16 0 -30 -4 -30 -10 0 -5 -13 -10 -30 -10 -16 0 -30 -4 -30
-9 0 -5 -25 -13 -56 -17 -43 -5 -58 -11 -61 -25 -6 -20 -33 -27 -33 -8 0 8 -6
7 -16 -2 -9 -8 -60 -18 -113 -24 -88 -9 -96 -12 -99 -32 -4 -26 -22 -32 -22
-7 0 8 -5 12 -11 9 -6 -4 -7 -19 -4 -37 5 -22 4 -28 -4 -24 -6 4 -25 2 -41 -6
-31 -13 -35 -19 -23 -31 3 -4 6 -24 6 -45 0 -33 -3 -37 -24 -34 -13 1 -25 7
-27 12 -2 6 -8 10 -13 10 -10 0 -72 47 -114 85 -104 96 -124 113 -128 108 -7
-7 -167 115 -174 133 -3 8 -12 14 -20 14 -9 0 -23 8 -32 18 -9 10 -54 46 -101
79 -47 34 -101 75 -120 91 -19 16 -59 41 -87 56 -29 14 -53 31 -53 36 0 6 -4
10 -9 10 -6 0 -22 11 -37 25 -15 14 -33 25 -40 25 -7 0 -14 3 -16 8 -3 7 -137
108 -169 127 -62 37 -129 86 -129 95 0 5 -4 10 -9 10 -13 0 -89 51 -122 83
-15 13 -33 26 -40 29 -8 3 -61 43 -118 89 -57 46 -119 95 -136 109 -18 14 -50
39 -71 55 -22 17 -40 33 -42 38 -2 4 -9 7 -16 7 -6 0 -27 13 -46 30 -19 16
-39 29 -43 30 -4 0 -21 14 -37 30 -16 17 -33 30 -38 30 -6 0 -28 18 -50 40
-22 22 -44 40 -50 40 -6 0 -17 6 -24 13 -51 47 -150 128 -183 149 -22 14 -51
37 -64 52 -14 14 -31 26 -38 26 -8 0 -16 7 -19 15 -4 8 -12 15 -20 15 -8 0
-14 5 -14 10 0 6 -6 10 -14 10 -8 0 -18 5 -21 10 -8 14 7 6 250 -115z"/>
<path d="M27161 25326 c2 -2 15 -9 29 -15 24 -11 24 -11 6 3 -16 13 -49 24
-35 12z"/>
<path d="M17873 24948 c-18 -10 -42 -18 -53 -18 -11 0 -23 -7 -27 -15 -3 -9
-20 -23 -37 -31 -17 -9 -46 -30 -63 -47 -25 -23 -42 -31 -72 -31 -22 -1 -42
-4 -46 -8 -4 -3 -30 1 -58 9 -63 19 -156 13 -209 -13 -21 -10 -39 -21 -39 -26
-1 -4 -2 -11 -3 -15 -23 -93 -24 -469 -3 -648 9 -71 19 -141 22 -155 3 -14 9
-50 15 -80 22 -128 95 -416 151 -600 16 -52 39 -126 50 -165 32 -107 51 -168
60 -190 13 -34 57 -158 73 -205 70 -213 225 -545 353 -758 12 -20 30 -50 39
-67 9 -16 38 -62 65 -102 27 -40 49 -75 49 -78 0 -3 20 -35 45 -71 25 -35 45
-66 45 -69 0 -7 39 -63 63 -89 9 -11 17 -26 17 -33 0 -7 3 -13 8 -13 4 0 34
-39 67 -86 33 -46 84 -115 113 -152 29 -37 78 -98 107 -137 30 -38 87 -111
127 -161 40 -51 100 -127 133 -169 33 -43 78 -96 100 -119 22 -22 49 -54 60
-69 11 -16 36 -45 55 -65 20 -21 54 -59 75 -87 22 -27 51 -61 65 -76 67 -70
100 -110 100 -119 0 -5 7 -10 15 -10 8 0 15 -4 15 -9 0 -9 144 -162 305 -326
44 -44 92 -94 106 -111 23 -25 89 -89 321 -306 31 -29 78 -72 105 -94 26 -23
69 -61 95 -85 54 -51 117 -106 170 -147 21 -16 34 -33 30 -37 -4 -5 -2 -6 3
-2 6 3 46 -28 90 -69 44 -40 85 -74 90 -74 6 0 33 -21 60 -46 28 -26 68 -58
90 -72 22 -14 49 -35 60 -47 11 -13 36 -31 55 -40 19 -10 39 -24 43 -31 4 -8
13 -14 19 -14 6 0 25 -12 42 -27 60 -52 185 -142 209 -149 9 -4 17 -11 17 -16
0 -8 59 -38 75 -38 3 0 5 9 5 19 0 11 7 21 16 23 13 2 10 11 -17 44 -19 23
-47 59 -64 80 -16 21 -37 45 -46 54 -8 9 -22 26 -30 37 -16 23 -116 136 -196
222 -29 31 -63 68 -77 83 -13 15 -27 24 -32 20 -4 -4 -4 -2 -1 4 4 7 -11 28
-33 48 -22 20 -40 41 -40 48 0 6 -3 9 -6 5 -7 -7 -74 70 -74 85 0 5 -5 6 -11
3 -6 -4 -13 1 -15 12 -3 10 -18 27 -34 38 -16 11 -28 22 -27 25 1 3 -55 63
-124 133 -69 70 -124 129 -121 132 3 3 -2 5 -11 5 -9 0 -17 5 -17 12 0 7 -213
224 -473 483 -520 516 -551 552 -630 744 -40 96 -40 96 -43 243 -2 130 0 155
19 206 50 134 106 156 355 140 86 -5 193 -9 238 -8 104 2 233 -16 309 -42 63
-22 197 -84 431 -199 127 -63 421 -248 591 -374 119 -87 51 -20 -119 120 -222
182 -586 504 -861 763 -345 324 -690 697 -977 1058 -14 17 -69 86 -123 153
-217 270 -493 662 -650 923 -93 154 -206 377 -282 558 -60 144 -174 477 -195
572 -12 53 -15 57 -39 55 -14 -1 -40 -10 -58 -19z"/>
<path d="M22340 24616 c0 -8 4 -17 9 -20 5 -4 7 3 4 14 -6 23 -13 26 -13 6z"/>
<path d="M22408 24533 c7 -3 16 -2 19 1 4 3 -2 6 -13 5 -11 0 -14 -3 -6 -6z"/>
<path d="M16036 23518 c-3 -13 -6 -40 -6 -61 l0 -37 -237 7 c-386 13 -2394 9
-2803 -5 -1876 -65 -3343 -222 -4695 -503 -375 -78 -1005 -242 -1005 -262 0
-5 3 -6 8 -4 4 3 23 8 42 11 19 3 91 16 160 30 69 13 152 27 185 31 33 4 121
15 195 25 74 11 167 22 205 25 39 4 77 8 85 10 8 2 40 7 70 10 55 6 290 44
560 91 408 70 707 117 815 129 66 8 176 21 245 30 69 9 163 20 210 26 47 5
117 14 155 20 39 6 88 13 110 15 22 3 155 18 295 34 140 16 334 36 430 45 96
8 191 17 210 20 19 3 73 7 120 10 47 3 130 10 185 15 106 11 171 15 380 25
136 7 170 0 50 -10 -99 -8 -236 -17 -260 -17 -11 0 -42 -4 -70 -9 -27 -5 -86
-11 -130 -13 -44 -3 -154 -14 -245 -25 -91 -11 -253 -30 -360 -41 -107 -11
-202 -23 -210 -27 -8 -3 -28 -6 -45 -8 -16 -1 -74 -8 -129 -14 -54 -6 -103 -8
-109 -4 -5 3 -7 1 -4 -4 4 -7 -9 -11 -36 -10 -23 0 -52 -5 -64 -11 -16 -9 -23
-9 -26 1 -4 9 -8 9 -14 0 -4 -6 -39 -14 -78 -17 -98 -8 -127 -12 -147 -20 -9
-4 -22 -5 -28 -1 -5 3 -10 2 -10 -2 0 -5 -12 -9 -27 -8 -16 0 -35 -3 -43 -7
-8 -4 -46 -12 -85 -17 -38 -6 -86 -13 -105 -16 -19 -3 -46 -8 -60 -11 -14 -3
-36 -7 -50 -9 -151 -20 -860 -160 -1240 -244 -102 -23 -216 -48 -255 -56 -415
-87 -1006 -233 -1196 -296 -227 -74 -475 -188 -652 -298 -56 -35 -186 -110
-432 -248 -49 -28 -115 -62 -145 -76 -30 -13 -85 -39 -122 -56 -36 -17 -71
-31 -77 -31 -6 0 -19 -4 -29 -9 -92 -48 -294 -113 -308 -99 -20 21 14 64 116
149 61 51 110 94 110 96 0 7 -90 -58 -193 -140 -322 -255 -445 -401 -592 -702
-88 -179 -133 -305 -171 -480 -27 -122 -29 -144 -28 -355 0 -195 3 -239 23
-330 93 -434 328 -832 720 -1219 127 -124 314 -289 361 -316 8 -5 -12 21 -45
57 -46 50 -61 74 -63 100 -7 97 -45 181 -147 327 -46 64 -52 91 -39 159 10 48
69 112 104 112 32 0 267 -94 565 -224 17 -7 91 -37 165 -66 74 -29 169 -66
210 -82 234 -93 376 -127 544 -133 116 -3 142 2 193 41 29 22 31 26 20 54 -6
16 -15 30 -19 30 -4 0 -8 7 -8 15 0 7 -6 18 -13 22 -8 4 -22 20 -32 36 -13 20
-14 27 -4 27 39 0 -125 91 -216 120 -60 19 -99 35 -565 237 -58 25 -142 63
-187 84 -45 22 -85 39 -88 39 -4 0 -21 11 -39 25 -18 13 -48 31 -68 39 -19 8
-55 30 -79 48 -24 18 -57 42 -74 52 -16 11 -70 54 -120 96 -240 204 -514 390
-574 390 -42 0 -56 -27 -70 -130 -6 -47 -13 -96 -16 -110 -3 -14 -12 -63 -20
-110 -26 -143 -52 -192 -96 -175 -20 8 -91 116 -137 210 -51 102 -88 222 -112
355 -35 197 -14 492 50 695 10 33 29 92 41 130 55 175 118 268 236 347 118 79
218 120 321 132 24 3 53 14 66 23 12 10 60 50 106 89 111 93 152 116 377 218
241 110 271 126 384 193 178 106 427 204 524 207 50 1 50 1 48 -29 -2 -23 -21
-47 -81 -105 -130 -124 -160 -150 -169 -150 -4 0 -18 -11 -31 -24 -12 -14 -56
-43 -96 -65 -194 -106 -402 -263 -498 -374 -230 -267 -299 -554 -203 -837 66
-195 197 -355 410 -502 78 -54 96 -59 123 -31 8 7 17 11 22 8 5 -3 10 -1 12 5
11 32 275 47 453 25 147 -18 395 -22 505 -10 60 7 69 12 123 61 31 29 72 57
90 63 17 5 61 21 95 36 35 15 71 28 81 30 9 2 34 12 54 24 20 11 40 20 42 20
13 -3 152 46 175 60 13 9 24 14 25 12 0 -4 83 18 104 29 16 8 197 63 341 102
41 12 77 24 80 27 6 8 95 32 137 39 18 2 31 7 29 11 -2 3 20 4 50 3 32 -2 54
-9 54 -15 0 -8 3 -8 8 1 11 17 75 4 68 -14 -3 -8 0 -11 8 -8 7 3 16 -2 19 -10
4 -9 12 -16 19 -16 7 0 26 -7 41 -15 56 -29 213 -12 537 57 80 17 176 36 213
42 38 6 66 14 62 17 -3 4 6 4 20 2 14 -3 31 -1 38 5 6 5 62 20 122 32 61 12
127 30 148 41 22 11 59 22 83 26 25 3 47 10 50 15 3 5 2 8 -3 7 -4 -1 -19 -1
-33 0 -23 2 -23 3 10 18 l35 16 -30 6 c-27 6 -28 8 -11 18 18 10 18 11 -8 28
-24 16 -25 20 -12 27 9 5 14 13 11 18 -6 9 14 51 35 71 8 8 38 29 65 47 75 48
86 56 99 67 14 12 79 50 126 73 19 9 37 20 40 23 3 4 20 10 38 14 17 3 32 11
32 16 0 5 8 9 17 9 17 0 160 47 178 58 6 4 12 7 15 8 9 1 64 15 100 24 55 14
263 47 344 55 17 2 101 10 186 19 85 9 179 17 209 18 36 2 56 8 59 17 3 8 0
11 -6 7 -7 -4 -22 -2 -34 5 -22 12 -22 12 -3 21 16 6 14 7 -7 3 -21 -4 -28 -1
-28 10 0 10 -10 15 -28 15 -15 0 -33 5 -38 10 -6 6 -44 12 -84 13 -40 1 -66 3
-57 5 9 2 17 8 17 13 0 6 24 8 63 4 47 -5 67 -2 82 9 20 15 20 15 -2 16 -13 0
-23 5 -23 11 0 7 14 8 39 4 52 -9 131 4 131 20 0 8 8 16 18 18 9 3 -2 5 -25 6
-24 0 -43 5 -43 11 0 5 8 9 18 8 69 -6 79 16 12 27 -25 4 -38 11 -33 18 4 7 0
8 -11 4 -10 -4 -34 -7 -54 -8 l-37 -1 30 -14 c25 -12 26 -14 5 -9 -14 4 -51 9
-82 12 -32 3 -58 9 -58 13 0 10 -160 25 -240 22 -19 -1 -96 0 -172 1 -75 1
-131 -2 -125 -6 7 -5 -6 -6 -28 -3 -43 6 -107 9 -115 6 -3 -1 -95 -3 -205 -5
-295 -4 -315 -6 -285 -15 21 -7 19 -8 -17 -9 -24 -1 -43 3 -43 8 0 5 -19 5
-43 0 -75 -14 -275 -17 -288 -5 -8 7 -13 8 -15 1 -3 -7 -30 -9 -71 -7 -36 3
-63 1 -60 -4 3 -5 -17 -7 -44 -6 -27 2 -57 1 -67 -3 -29 -13 -106 -5 -119 11
-6 9 -14 15 -17 15 -3 -1 -18 -1 -33 -1 l-28 1 30 13 c28 12 47 13 115 3 14
-2 19 -2 13 0 -7 3 -13 9 -13 14 0 6 -10 7 -22 3 -13 -3 -19 -3 -15 2 14 15
87 33 93 23 8 -14 24 -11 18 4 -5 13 48 32 124 43 27 4 42 12 42 21 0 8 5 11
10 8 6 -4 17 -2 24 4 7 6 30 13 51 17 21 3 49 10 63 15 14 5 33 7 43 4 11 -4
19 -2 19 4 0 6 15 11 34 11 19 0 47 5 62 11 16 5 71 17 123 24 52 8 99 19 105
25 5 5 23 10 38 10 15 0 28 5 28 10 0 6 7 10 16 10 8 0 12 5 9 11 -4 6 -1 9 6
8 14 -2 34 4 74 22 23 10 131 40 157 43 9 1 23 7 31 14 7 7 17 9 21 5 3 -4 13
2 21 13 7 11 33 27 57 34 24 8 60 24 80 37 21 13 42 23 47 23 8 0 239 72 279
88 15 5 16 4 2 -13 -14 -17 -13 -18 3 -12 11 4 30 10 44 13 14 4 22 12 19 19
-6 16 46 28 55 13 7 -11 77 -3 114 13 13 5 -4 7 -45 4 l-65 -4 74 16 c47 10
75 12 80 6 3 -5 24 -7 46 -5 39 6 39 6 10 12 -23 4 -7 10 74 24 61 11 106 15
110 9 3 -5 20 -6 36 -2 28 6 28 7 5 9 -49 4 95 30 160 29 36 -1 79 -1 95 1
l30 3 -35 7 -35 7 35 2 c19 1 46 4 60 7 20 4 22 3 10 -5 -12 -9 -10 -11 13
-11 15 0 27 5 27 11 0 7 14 8 40 4 26 -4 40 -3 40 4 0 6 7 11 15 11 8 0 15 -4
15 -9 0 -6 13 -6 33 1 17 5 104 14 192 19 88 5 205 13 260 18 55 5 141 11 190
14 378 17 586 29 685 36 123 10 354 9 460 -1 45 -4 53 -3 25 2 -31 7 278 6
430 -1 l20 0 -20 -9 c-12 -5 47 -9 155 -10 494 -6 580 -10 580 -33 0 -6 28 -8
80 -4 45 4 128 2 185 -3 57 -6 156 -12 220 -14 63 -1 118 -6 122 -9 3 -4 25
-7 47 -7 30 0 37 -3 26 -10 -11 -7 -5 -10 25 -10 22 0 82 -7 133 -14 83 -12
94 -11 103 3 9 14 10 14 5 -1 -3 -10 -2 -18 2 -18 4 0 8 -16 10 -37 1 -20 9
-63 18 -97 9 -34 18 -74 21 -91 2 -16 16 -70 29 -120 14 -49 27 -101 30 -115
10 -49 117 -359 166 -480 28 -69 54 -134 58 -145 5 -11 34 -74 65 -140 32 -66
64 -136 73 -155 16 -39 113 -211 173 -307 22 -34 39 -65 39 -68 0 -3 26 -45
57 -93 32 -48 63 -98 71 -112 7 -14 30 -47 51 -75 20 -27 58 -82 83 -121 39
-61 243 -337 273 -371 63 -70 108 -113 116 -113 6 0 7 -4 4 -10 -3 -5 -1 -10
4 -10 6 0 11 -4 11 -10 0 -5 11 -20 25 -34 14 -14 25 -23 25 -21 0 3 17 -14
38 -37 20 -23 58 -62 85 -86 26 -25 47 -48 47 -51 0 -7 700 -709 825 -827 39
-37 142 -137 230 -223 259 -252 353 -341 470 -441 60 -52 134 -118 165 -146
30 -28 82 -73 116 -100 33 -27 120 -98 193 -159 195 -162 603 -472 866 -660
411 -293 605 -424 965 -650 242 -152 588 -356 745 -440 50 -26 129 -70 177
-97 50 -28 97 -48 110 -46 19 3 14 13 -51 93 -40 50 -77 99 -81 110 -5 11 -27
40 -49 65 -22 25 -41 48 -41 53 0 7 -11 20 -105 127 -23 25 -52 62 -65 82 -14
20 -26 35 -28 33 -3 -2 -23 19 -45 48 -23 29 -68 79 -102 113 -33 34 -82 87
-110 120 -27 32 -66 74 -85 94 -20 19 -53 57 -75 85 -81 102 -203 229 -249
260 -73 49 -184 105 -318 159 -312 126 -534 277 -878 601 -47 44 -141 132
-210 195 -69 63 -156 144 -195 180 -38 36 -101 94 -140 130 -410 382 -617 581
-980 944 -390 391 -633 646 -790 831 -57 67 -105 123 -186 216 -85 97 -125
145 -235 280 -199 243 -289 355 -319 394 -16 22 -35 46 -42 53 -7 8 -26 30
-41 50 -15 21 -29 39 -32 42 -3 3 -21 25 -40 50 -19 25 -38 50 -43 55 -41 51
-114 150 -145 195 -20 30 -40 57 -43 60 -4 3 -23 32 -44 65 -21 33 -41 62 -44
65 -8 7 -27 38 -56 93 -14 27 -43 76 -63 110 -136 224 -259 545 -336 877 -32
139 -73 441 -91 670 -17 224 -37 379 -52 420 -4 8 -5 19 -4 23 1 5 -9 22 -21
39 -12 18 -16 28 -8 23 9 -5 11 -4 6 3 -11 18 -23 14 -30 -10z m-771 -228
c199 -13 250 -17 450 -36 88 -8 188 -17 223 -20 49 -4 62 -9 63 -22 0 -9 1
-122 2 -250 l2 -233 -80 6 c-170 14 -422 45 -465 58 -60 18 -189 80 -190 90 0
14 53 57 106 86 124 68 82 104 -258 222 -198 68 -249 92 -217 103 39 14 104
13 364 -4z m-608 -520 c158 -12 173 -16 173 -45 0 -13 -8 -31 -17 -41 -16 -16
-46 -17 -438 -8 -231 5 -994 9 -1697 9 -702 0 -1279 3 -1283 7 -8 7 28 11 365
38 224 18 383 26 965 50 259 10 1773 3 1932 -10z m-2217 -282 c59 -2 521 -49
580 -58 81 -13 139 -30 165 -47 11 -7 16 -13 11 -13 -5 0 -52 -7 -105 -15 -53
-8 -213 -19 -356 -25 -461 -18 -907 -40 -1025 -50 -63 -6 -176 -15 -250 -20
-74 -6 -250 -22 -390 -36 -140 -13 -303 -29 -361 -34 -142 -13 -254 -25 -514
-55 -121 -14 -260 -30 -310 -35 -49 -6 -108 -13 -130 -15 -333 -41 -508 -50
-570 -28 -87 29 -79 76 22 126 76 39 271 96 408 122 50 9 110 20 135 25 110
21 785 96 1085 119 252 20 601 41 720 44 99 2 801 -1 885 -5z m488 -255 c-10
-2 -26 -2 -35 0 -10 3 -2 5 17 5 19 0 27 -2 18 -5z m-291 -19 c-3 -3 -12 -4
-19 -1 -8 3 -5 6 6 6 11 1 17 -2 13 -5z m-1707 -236 c-19 -5 -39 -14 -44 -19
-6 -5 -25 -9 -43 -9 -19 0 -36 -6 -41 -16 -5 -9 -17 -14 -28 -12 -18 5 -18 5
1 13 11 5 22 12 25 15 6 8 117 37 145 38 11 0 4 -4 -15 -10z m-195 -58 c-27
-12 -43 -12 -25 0 8 5 22 9 30 9 10 0 8 -3 -5 -9z m-75 -30 c0 -5 -4 -10 -10
-10 -5 0 -10 5 -10 10 0 6 5 10 10 10 6 0 10 -4 10 -10z m-180 -94 c0 -2 -7
-6 -15 -10 -8 -3 -15 -1 -15 4 0 6 7 10 15 10 8 0 15 -2 15 -4z"/>
<path d="M19429 23051 c16 -20 76 -84 133 -143 l103 -107 166 -30 c91 -17 226
-44 300 -61 74 -17 184 -42 244 -55 61 -13 157 -36 215 -50 58 -15 155 -37
215 -50 61 -12 172 -39 247 -59 76 -21 184 -48 240 -61 57 -13 166 -42 243
-65 77 -22 185 -52 240 -66 95 -24 297 -84 415 -124 266 -89 738 -308 1260
-585 175 -93 299 -155 513 -260 51 -25 124 -63 162 -85 39 -22 77 -43 85 -46
8 -4 65 -35 125 -69 158 -89 226 -122 267 -130 32 -6 38 -4 53 19 17 26 17 27
-19 71 -78 94 -255 264 -346 331 -352 260 -969 577 -1580 811 -909 349 -1959
620 -3262 842 l-47 8 28 -36z"/>
<path d="M20174 22268 c9 -13 49 -53 89 -90 l74 -67 304 -61 c167 -34 369 -77
448 -96 79 -19 146 -33 148 -30 3 2 -48 21 -112 41 -64 20 -114 39 -112 42 3
2 54 -5 113 -17 59 -12 129 -23 156 -25 137 -8 -62 72 -437 176 -180 50 -628
149 -673 149 -9 0 -9 -5 2 -22z"/>
<path d="M15688 22163 c6 -2 18 -2 25 0 6 3 1 5 -13 5 -14 0 -19 -2 -12 -5z"/>
<path d="M15698 22143 c12 -2 32 -2 45 0 12 2 2 4 -23 4 -25 0 -35 -2 -22 -4z"/>
<path d="M11688 22103 c6 -2 18 -2 25 0 6 3 1 5 -13 5 -14 0 -19 -2 -12 -5z"/>
<path d="M11528 22073 c7 -3 16 -2 19 1 4 3 -2 6 -13 5 -11 0 -14 -3 -6 -6z"/>
<path d="M20470 21978 c810 -768 1643 -1435 2612 -2089 142 -96 296 -198 343
-227 l85 -54 57 33 c32 18 85 51 118 73 33 22 62 41 65 41 3 0 16 8 30 16 14
9 42 26 63 38 l39 21 -20 -28 c-34 -47 -115 -126 -194 -189 l-76 -61 90 -53
c50 -30 93 -53 97 -53 15 3 143 297 155 358 11 52 37 138 61 202 38 100 47
148 46 244 -1 151 -64 333 -165 474 -45 63 -173 191 -223 223 -15 9 -30 20
-33 23 -3 3 -34 25 -69 49 l-64 45 41 -55 c91 -117 117 -154 115 -161 -2 -5 1
-8 6 -8 5 0 12 -10 16 -22 22 -65 22 -80 3 -119 -28 -59 -49 -81 -65 -67 -7 6
-13 8 -13 4 0 -17 -112 57 -189 125 -148 129 -251 209 -381 294 -165 107 -203
128 -410 225 -153 72 -640 280 -654 280 -3 0 -29 11 -58 24 -29 13 -93 40
-143 60 -49 20 -103 43 -120 51 -121 56 -396 155 -543 195 -159 44 -664 161
-688 160 -5 -1 25 -33 66 -72z"/>
<path d="M21258 21913 c7 -3 16 -2 19 1 4 3 -2 6 -13 5 -11 0 -14 -3 -6 -6z"/>
<path d="M9658 21513 c7 -3 16 -2 19 1 4 3 -2 6 -13 5 -11 0 -14 -3 -6 -6z"/>
<path d="M9608 21503 c6 -2 18 -2 25 0 6 3 1 5 -13 5 -14 0 -19 -2 -12 -5z"/>
<path d="M9465 21460 c-3 -5 -1 -10 4 -10 6 0 11 5 11 10 0 6 -2 10 -4 10 -3
0 -8 -4 -11 -10z"/>
<path d="M21250 20716 c0 -2 8 -10 18 -17 15 -13 16 -12 3 4 -13 16 -21 21
-21 13z"/>
<path d="M21855 20252 c11 -10 88 -70 170 -132 83 -63 177 -135 210 -160 33
-26 139 -106 235 -179 96 -74 209 -161 252 -195 42 -33 117 -90 165 -126 48
-36 116 -91 152 -122 36 -32 72 -58 79 -58 6 0 12 -4 12 -9 0 -5 15 -18 33
-28 30 -18 255 -193 341 -265 130 -109 155 -135 165 -168 16 -53 14 -59 -25
-66 -34 -6 -58 -4 -169 17 -27 5 -84 13 -125 18 -41 5 -119 17 -172 25 -118
19 -147 20 -215 4 -52 -12 -52 -12 -58 -58 -3 -25 -8 -57 -10 -71 -2 -14 1
-31 7 -37 6 -6 8 -42 4 -99 -13 -182 -23 -241 -47 -267 -11 -11 -19 -28 -19
-37 0 -10 -11 -30 -25 -45 -14 -15 -25 -31 -25 -35 0 -5 -7 -9 -16 -9 -8 0
-13 -4 -9 -9 5 -9 -38 -45 -80 -66 -11 -6 -24 -20 -30 -32 -5 -13 -22 -27 -37
-32 -16 -6 -28 -17 -28 -25 0 -9 -14 -23 -31 -31 -19 -11 -29 -22 -25 -31 3
-8 -1 -14 -9 -14 -34 0 -14 -26 113 -143 34 -32 62 -62 62 -66 0 -4 11 -13 25
-19 14 -6 25 -16 25 -22 0 -5 5 -10 10 -10 6 0 20 -9 32 -20 12 -11 18 -20 12
-20 -5 0 3 -8 17 -18 15 -9 88 -63 162 -119 75 -57 139 -103 142 -103 3 0 18
-11 33 -25 15 -14 32 -25 37 -25 6 0 26 -13 45 -30 19 -16 39 -29 43 -30 4 0
13 -4 20 -10 48 -39 79 -61 130 -91 31 -18 57 -37 57 -41 0 -5 7 -8 15 -8 8 0
15 -4 15 -10 0 -5 6 -10 14 -10 8 0 16 -3 18 -7 2 -5 46 -35 98 -69 52 -34
135 -88 185 -120 49 -32 103 -68 120 -79 35 -22 124 -79 218 -140 34 -21 64
-42 67 -45 8 -10 160 -100 169 -100 5 0 14 -6 20 -14 10 -12 -136 31 -298 89
-24 8 -46 13 -48 11 -2 -2 76 -46 174 -96 98 -51 246 -130 328 -175 83 -45
188 -103 235 -128 47 -25 139 -62 205 -82 312 -96 376 -115 455 -135 47 -11
108 -31 135 -44 53 -24 442 -120 735 -181 96 -20 177 -38 180 -40 3 -2 109
-22 235 -44 1608 -285 3367 -318 4540 -85 296 58 674 169 945 276 157 62 328
143 323 152 -4 5 1 7 10 3 11 -4 15 -1 12 13 -2 11 1 17 8 14 7 -2 26 8 42 22
17 14 24 23 18 19 -7 -3 -13 -4 -13 -1 0 3 37 27 83 54 98 59 193 119 215 138
10 7 62 47 117 88 98 74 256 214 203 181 -20 -12 -31 -14 -46 -6 -11 6 -22 8
-25 5 -3 -3 -14 -1 -24 4 -53 29 -198 33 -408 13 -215 -20 -525 -5 -610 29
-75 31 -110 33 -535 36 -422 2 -552 7 -900 40 -212 20 -233 22 -365 39 -60 8
-141 17 -180 20 -109 10 -297 33 -440 55 -128 20 -191 26 -330 35 -77 5 -263
39 -595 108 -340 71 -365 76 -551 92 -385 34 -963 132 -1334 227 -44 11 -87
21 -96 23 -45 9 -256 71 -363 106 -333 110 -503 180 -816 336 -148 73 -540
311 -659 400 -67 49 -157 117 -224 168 -32 24 -67 47 -78 50 -10 4 -19 11 -19
16 0 6 -3 8 -7 6 -5 -3 -30 8 -58 24 -59 34 -106 54 -119 51 -5 -2 -6 4 -2 13
3 9 2 14 -3 10 -13 -7 -41 22 -41 43 0 14 -2 15 -9 2 -6 -8 -7 -19 -4 -25 4
-5 2 -6 -3 -2 -5 5 -9 12 -9 15 0 4 -4 13 -9 21 -7 10 -5 12 5 6 8 -4 4 2 -9
15 -13 12 -26 19 -30 15 -3 -3 -2 -9 4 -13 13 -8 15 -44 2 -36 -4 3 -8 11 -8
19 0 29 -52 67 -250 180 -262 149 -416 247 -560 356 -63 47 -146 108 -185 134
-65 45 -112 79 -282 204 -168 123 -260 187 -528 368 -159 108 -360 246 -445
306 -208 148 -289 203 -265 179z"/>
<path d="M13600 19747 c-3 -3 -122 -8 -265 -11 -143 -4 -332 -11 -420 -16 -88
-6 -191 -10 -230 -11 -38 -1 -119 -5 -180 -10 -60 -5 -155 -11 -210 -14 -146
-8 -358 -25 -375 -30 -8 -2 -89 -9 -180 -15 -91 -6 -219 -17 -285 -25 -66 -9
-187 -22 -270 -29 -82 -8 -235 -26 -340 -39 -104 -14 -197 -25 -205 -25 -8 0
-87 -12 -175 -27 -88 -15 -173 -28 -190 -30 -16 -2 -64 -6 -105 -10 -40 -4
-85 -11 -98 -16 -14 -5 -48 -12 -76 -15 -28 -3 -55 -8 -59 -11 -9 -5 -15 -6
-288 -51 -97 -16 -181 -32 -186 -35 -5 -3 -20 -8 -34 -11 -28 -5 -69 -14 -244
-56 -195 -47 -193 -47 -290 -76 -198 -59 -392 -125 -418 -143 -28 -18 -30 -18
-215 21 -103 21 -209 43 -237 48 -160 27 -688 163 -895 229 -121 39 -146 43
-122 19 17 -17 15 -28 -3 -22 -23 9 -18 -23 5 -36 17 -9 18 -14 9 -31 -8 -17
-6 -23 15 -40 31 -24 34 -39 6 -32 -31 8 -24 -15 10 -32 16 -9 30 -22 30 -30
0 -8 9 -15 20 -15 12 0 20 -7 20 -17 0 -13 24 -28 83 -52 82 -34 368 -178 377
-190 3 -4 17 -12 33 -18 15 -7 27 -17 27 -23 0 -5 7 -10 14 -10 12 0 49 -41
72 -78 1 -2 68 -23 148 -47 80 -25 153 -49 163 -54 10 -5 61 -21 113 -35 52
-14 160 -43 240 -65 141 -38 260 -69 290 -75 8 -2 34 -8 58 -15 24 -7 132 -27
240 -46 108 -18 253 -43 322 -54 364 -63 536 -91 635 -106 61 -9 130 -20 155
-25 25 -6 137 -23 250 -40 301 -45 942 -150 1500 -246 294 -51 364 -62 460
-74 47 -6 140 -20 207 -30 66 -11 170 -24 230 -30 222 -21 319 -30 363 -35 25
-2 113 -11 195 -20 83 -9 164 -20 181 -26 18 -5 36 -9 40 -7 5 1 34 -1 64 -5
30 -4 84 -10 120 -12 104 -8 174 -16 181 -21 8 -5 143 -11 464 -21 405 -13
1540 -1 1810 18 72 5 254 15 405 24 412 21 621 35 660 42 19 3 87 7 150 9 63
1 185 5 270 8 248 9 510 17 577 18 34 1 61 4 59 7 -2 3 24 6 57 6 34 1 94 4
132 8 39 4 126 12 195 18 69 6 136 13 150 14 14 2 43 4 65 4 l40 1 -76 73
c-41 39 -148 141 -237 225 l-161 153 -153 -16 c-812 -85 -2006 -128 -2923
-105 -264 7 -500 13 -525 15 -25 2 -142 6 -260 9 -250 7 -526 22 -690 36 -63
5 -216 17 -340 25 -1068 72 -2270 222 -3448 430 -337 60 -406 74 -732 149
-414 96 -674 154 -784 176 -55 11 -102 22 -104 25 -8 8 14 13 248 59 558 110
1376 229 2305 336 143 16 316 36 385 44 277 34 612 67 955 96 132 11 260 22
285 24 129 13 477 37 720 50 923 52 1764 55 2485 10 143 -9 296 -17 340 -18
44 0 82 -4 85 -8 4 -4 59 -9 123 -10 64 -2 117 -5 117 -8 0 -3 11 -7 25 -8 51
-4 23 16 -37 26 -109 20 -198 24 -198 10 0 -10 -2 -10 -8 0 -5 7 -31 15 -58
19 -27 3 -52 10 -55 15 -4 6 -8 5 -11 -3 -3 -10 -11 -10 -37 -1 -24 8 -39 9
-53 1 -15 -8 -22 -8 -28 1 -4 7 -12 10 -18 6 -6 -3 -13 0 -15 6 -3 8 -6 9 -6
2 -1 -7 -14 -10 -33 -7 -18 2 -45 5 -60 6 -15 1 -30 5 -33 9 -4 4 -14 4 -22 1
-8 -3 -25 0 -37 7 -20 10 -28 9 -49 -4 -23 -16 -25 -16 -30 4 -3 12 -13 20
-27 20 -11 0 -19 -4 -15 -10 5 -8 -22 -8 -150 5 -22 3 -92 7 -155 10 -63 3
-131 7 -150 9 -19 2 -132 7 -250 11 -118 4 -235 9 -260 10 -102 6 -1155 17
-1160 12z"/>
<path d="M16595 19590 c-3 -5 1 -10 10 -10 9 0 13 5 10 10 -3 6 -8 10 -10 10
-2 0 -7 -4 -10 -10z"/>
<path d="M16655 19590 c-3 -6 -11 -8 -16 -5 -5 4 -9 2 -9 -3 0 -10 75 -11 85
0 4 3 -1 5 -12 4 -10 -2 -23 1 -30 6 -7 5 -14 5 -18 -2z"/>
<path d="M6975 19370 c-3 -5 -1 -10 4 -10 6 0 11 5 11 10 0 6 -2 10 -4 10 -3
0 -8 -4 -11 -10z"/>
<path d="M5940 18022 c0 -19 103 -103 174 -143 148 -83 568 -288 741 -361
1038 -440 2405 -806 4000 -1072 1290 -215 2450 -341 3770 -408 375 -19 1461
-16 1855 5 1149 61 2226 174 3195 333 116 19 248 37 295 40 109 6 159 12 173
21 6 4 7 1 2 -7 -5 -8 -4 -11 2 -7 12 8 53 14 138 22 166 14 193 18 230 27 22
6 53 10 69 9 l30 -2 -40 30 c-21 17 -84 63 -139 102 -188 136 -490 363 -629
472 l-138 109 -87 -8 c-47 -5 -93 -8 -101 -7 -8 2 -37 -2 -65 -7 -44 -8 -348
-42 -495 -54 -30 -3 -161 -16 -290 -30 -337 -36 -323 -35 -577 -42 -169 -5
-248 -4 -295 6 -70 14 -64 13 -203 35 -55 9 -134 26 -175 37 -41 11 -91 23
-110 28 -19 4 -55 14 -80 23 -25 8 -85 24 -135 35 -82 18 -127 20 -490 21
-220 1 -472 3 -560 6 -88 3 -317 8 -510 10 -192 3 -438 7 -545 11 -341 9 -886
4 -1070 -11 -96 -8 -218 -17 -270 -20 -52 -3 -140 -12 -195 -20 -163 -24 -309
-45 -339 -51 -48 -8 -106 -44 -116 -70 -5 -13 -16 -27 -24 -30 -26 -10 -29
-77 -7 -152 34 -114 17 -160 -81 -209 -134 -68 -307 -98 -673 -117 -66 -4
-147 -13 -180 -21 -33 -7 -80 -18 -105 -24 -145 -34 -309 -50 -455 -46 -285 9
-370 14 -480 29 -60 8 -144 18 -185 21 -41 4 -91 9 -110 11 -19 2 -57 6 -85 9
-27 3 -66 10 -85 15 -19 5 -80 16 -135 25 -55 9 -190 39 -300 66 -110 28 -209
52 -220 54 -24 3 -266 89 -380 134 -16 7 -77 30 -135 52 -123 47 -291 129
-285 139 3 4 -8 10 -23 13 -15 3 -43 17 -63 30 -20 14 -52 30 -72 36 -20 7
-37 15 -39 20 -2 4 -34 20 -73 35 -38 16 -102 44 -141 62 -39 19 -74 34 -79
34 -5 0 -27 9 -49 19 -223 104 -299 138 -461 203 -27 11 -69 31 -92 44 -23 13
-47 24 -54 24 -15 0 -229 84 -281 110 -20 10 -39 16 -42 13 -3 -4 -16 -2 -29
4 -76 36 -397 136 -472 148 -11 1 -72 15 -135 30 -63 14 -128 29 -145 31 -16
3 -52 9 -80 15 -27 6 -92 12 -142 15 -82 5 -96 3 -118 -14 -14 -11 -47 -23
-74 -27 -57 -8 -175 28 -306 93 -93 46 -125 57 -125 44z"/>
<path d="M34803 17835 c0 -22 2 -30 4 -17 2 12 2 30 0 40 -3 9 -5 -1 -4 -23z"/>
<path d="M34812 17490 c0 -168 -3 -332 -6 -365 -45 -397 -105 -700 -197 -1010
-54 -178 -148 -435 -212 -575 -14 -30 -39 -86 -57 -125 -18 -38 -39 -78 -48
-87 -8 -10 -12 -18 -7 -18 4 0 3 -6 -3 -12 -11 -15 -45 -73 -76 -133 -12 -22
-50 -86 -86 -142 -36 -56 -73 -117 -82 -135 -10 -18 -18 -28 -18 -23 0 6 -12
-9 -26 -32 -14 -24 -30 -43 -36 -43 -6 0 -8 -3 -5 -6 7 -7 -10 -27 -126 -158
-89 -99 -151 -160 -253 -251 -129 -115 -143 -126 -207 -170 -32 -21 -62 -46
-67 -55 -5 -8 -10 -11 -10 -6 0 5 -8 2 -17 -6 -10 -8 -61 -41 -113 -73 -52
-33 -98 -63 -101 -68 -3 -5 -10 -9 -15 -9 -13 0 -84 -37 -119 -62 -16 -11 -30
-19 -30 -17 0 6 -83 -37 -130 -68 -22 -14 -46 -26 -54 -27 -27 -5 -126 -48
-133 -58 -4 -6 -8 -8 -8 -4 0 7 -35 -6 -117 -43 -23 -10 -49 -19 -57 -19 -9 0
-16 -4 -16 -8 0 -4 -12 -9 -27 -10 -16 -1 -30 -7 -31 -12 -2 -6 -7 -8 -11 -5
-4 2 -50 -11 -101 -30 -51 -19 -101 -35 -112 -35 -12 0 -16 -4 -12 -12 4 -6 3
-8 -3 -5 -8 5 -143 -30 -193 -50 -8 -4 -18 -7 -22 -8 -5 -2 -9 -3 -10 -4 -2
-2 -14 -4 -28 -6 -14 -2 -45 -9 -70 -15 -25 -6 -79 -19 -120 -29 -41 -10 -82
-21 -90 -24 -8 -3 -31 -8 -50 -11 -19 -2 -69 -12 -110 -21 -41 -9 -82 -18 -90
-19 -8 -2 -33 -7 -55 -11 -22 -5 -44 -7 -49 -6 -4 1 -22 -3 -40 -8 -30 -10
-516 -84 -546 -83 -8 0 -22 -2 -30 -5 -8 -3 -31 -7 -50 -8 -53 -4 -145 -13
-302 -30 -377 -40 -519 -47 -955 -49 -178 0 -323 -4 -323 -7 0 -8 336 -19 605
-19 576 0 1343 81 1950 204 547 112 946 245 1365 456 212 107 333 182 505 311
274 205 499 443 681 719 153 234 338 585 451 860 132 321 188 533 267 1015 57
351 61 395 60 690 -1 154 -6 303 -12 330 -7 38 -10 -24 -10 -255z"/>
<path d="M4920 16532 c0 -2 26 -37 57 -76 418 -523 903 -918 1528 -1242 1184
-614 2736 -1073 4485 -1325 1175 -169 2381 -249 3747 -249 3332 1 5912 395
7670 1171 139 61 492 234 505 247 4 4 -88 58 -203 121 -229 123 -208 117 -294
80 -51 -21 -109 -44 -225 -86 -69 -26 -126 -50 -128 -55 -2 -4 -12 -8 -21 -8
-22 0 -124 -41 -132 -53 -3 -4 -17 -9 -30 -9 -13 -1 -33 -8 -44 -15 -11 -7
-25 -13 -33 -13 -7 0 -34 -9 -59 -21 -25 -11 -54 -19 -64 -16 -10 3 -19 1 -21
-4 -2 -5 -12 -10 -23 -12 -11 -2 -33 -9 -48 -15 -15 -7 -40 -15 -55 -18 -32
-7 -138 -42 -167 -55 -11 -5 -38 -13 -60 -18 -95 -23 -116 -30 -129 -40 -7 -6
-55 -20 -106 -32 -51 -11 -102 -25 -114 -31 -11 -6 -23 -11 -26 -10 -7 2 -81
-17 -105 -27 -64 -27 -247 -73 -440 -111 -50 -10 -81 -17 -105 -25 -20 -6 -32
-9 -125 -26 -64 -12 -67 -13 -105 -22 -14 -4 -37 -9 -53 -11 -15 -3 -35 -7
-45 -10 -9 -3 -33 -8 -52 -10 -44 -7 -187 -33 -220 -42 -50 -12 -117 -24 -224
-39 -60 -8 -136 -22 -170 -29 -33 -8 -63 -13 -67 -10 -8 4 -74 -4 -314 -41
-93 -14 -208 -30 -255 -36 -47 -5 -110 -13 -140 -18 -59 -9 -65 -10 -150 -16
-30 -2 -73 -6 -95 -9 -22 -2 -103 -12 -180 -20 -77 -9 -174 -21 -215 -26 -41
-5 -122 -12 -180 -15 -140 -8 -220 -15 -250 -20 -14 -3 -92 -9 -175 -15 -82
-5 -206 -14 -275 -19 -69 -6 -215 -13 -325 -16 -110 -4 -238 -11 -285 -17 -47
-6 -139 -12 -205 -14 -66 -1 -237 -7 -380 -13 -849 -34 -1887 -48 -2375 -31
-157 5 -364 12 -460 15 -96 3 -195 8 -220 11 -55 7 -501 26 -622 26 -49 1 -88
4 -88 9 0 4 -17 7 -37 6 -101 -2 -253 6 -253 15 0 5 -21 6 -49 2 -29 -4 -56
-2 -70 5 -11 7 -21 8 -21 3 0 -5 -23 -5 -52 -1 -29 5 -127 15 -218 24 -352 32
-438 42 -665 75 -77 11 -151 22 -165 24 -14 1 -47 8 -75 13 -49 11 -119 22
-265 42 -75 10 -211 33 -305 51 -27 5 -93 16 -145 25 -52 9 -131 22 -175 30
-43 8 -88 13 -100 9 -16 -4 -17 -3 -5 6 11 8 6 9 -24 4 -28 -5 -37 -4 -32 5 6
10 -19 16 -46 12 -5 0 -8 3 -8 7 0 4 -15 9 -32 10 -18 1 -53 6 -78 12 -81 17
-173 38 -305 69 -71 16 -155 35 -185 41 -30 7 -74 16 -97 22 -23 6 -54 7 -68
4 -17 -4 -24 -3 -23 6 2 7 -4 13 -12 14 -8 0 -17 2 -20 3 -3 2 -14 4 -24 6
-11 2 -30 6 -43 10 -13 3 -23 1 -23 -5 0 -5 -5 -10 -11 -10 -5 0 -7 5 -3 12 5
7 2 9 -8 5 -9 -3 -24 1 -35 8 -10 8 -22 14 -28 15 -5 0 -3 -5 5 -10 30 -19 -1
-10 -48 15 -26 14 -70 28 -97 31 -28 4 -54 10 -60 14 -14 11 -158 45 -174 41
-7 -1 -10 2 -7 8 7 10 -36 24 -104 35 -19 3 -46 8 -60 10 -14 2 -38 9 -54 15
-16 7 -35 10 -43 7 -7 -3 -13 -1 -13 4 0 5 -16 12 -35 16 -19 3 -35 10 -35 14
0 5 -9 6 -20 3 -11 -3 -20 -1 -20 5 0 6 -14 14 -32 17 -18 4 -48 16 -68 26
-20 10 -58 22 -85 25 -28 4 -76 20 -107 36 -32 16 -63 26 -69 22 -7 -4 -9 -3
-6 3 3 5 -27 19 -68 32 -41 12 -77 26 -80 32 -4 5 -13 9 -21 9 -9 0 -43 16
-76 35 -33 19 -64 33 -69 30 -5 -4 -9 -1 -9 4 0 6 -11 11 -25 11 -14 0 -25 5
-25 10 0 6 -11 10 -24 10 -13 0 -35 9 -49 20 -14 11 -36 21 -49 22 -12 2 -25
6 -28 9 -3 4 -48 29 -100 56 -52 28 -112 61 -132 74 -65 42 -161 94 -170 91
-4 -1 -8 2 -8 8 0 8 -54 43 -70 45 -3 0 -16 8 -30 17 -14 9 -44 27 -67 40 -22
12 -52 31 -65 40 -33 25 -152 110 -178 128 -12 8 -44 32 -70 53 -26 20 -53 37
-59 37 -6 0 -11 5 -11 10 0 6 -7 10 -15 10 -8 0 -14 6 -12 13 1 6 -3 11 -10
10 -7 -2 -17 6 -23 17 -6 11 -16 20 -23 20 -7 0 -27 13 -46 28 -19 15 -73 58
-120 96 -47 38 -107 88 -133 110 -66 58 -101 86 -118 96 -8 5 -11 10 -5 10 9
0 -20 24 -39 31 -5 2 -63 56 -128 120 -65 64 -118 114 -118 111z m3550 -1885
c13 -5 13 -6 -1 -6 -8 -1 -24 6 -35 15 -19 15 -19 15 1 6 11 -5 27 -12 35 -15z"/>
<path d="M28853 13183 c9 -2 23 -2 30 0 6 3 -1 5 -18 5 -16 0 -22 -2 -12 -5z"/>
</g>
</svg>
